<svg width="137" height="32" viewBox="0 0 137 32" fill="none" xmlns="http://www.w3.org/2000/svg">
<path d="M5.08206 31V13.3845L4.90277 8.18501H5.26135L9.0265 13.4741L22.5631 31H27.7626V0.968483H22.9217V18.7185L23.1458 24.1421H22.7872L18.8876 18.5392L5.44064 0.968483H0.241158V31H5.08206ZM43.624 31.4482C51.0647 31.4482 56.04 26.7418 56.04 19.8839C56.04 12.9363 51.0647 8.27466 43.624 8.27466C36.2282 8.27466 31.2528 12.9363 31.2528 19.8839C31.2528 26.7418 36.2282 31.4482 43.624 31.4482ZM43.624 27.1452C38.2452 27.1452 36.0041 24.5903 36.0041 19.8839C36.0041 15.1326 38.2452 12.5329 43.624 12.5329C49.0476 12.5329 51.2888 15.1326 51.2888 19.8839C51.2888 24.5903 49.0476 27.1452 43.624 27.1452ZM74.1654 31V26.6522H70.1313C67.3523 26.6522 66.0972 25.935 66.0972 23.2008V12.757H74.1654V8.72289H66.0972V3.83717H61.3012V8.72289H57.536V12.757H61.3012V23.4697C61.3012 28.8933 64.2595 31 69.0556 31H74.1654ZM88.3992 31.4482C95.033 31.4482 99.6946 28.1761 99.6946 23.4249V23.0215H94.8537V23.3801C94.8537 26.0246 92.9263 27.5486 88.2647 27.5486C83.1101 27.5486 81.0034 25.2626 80.8241 20.9596H99.7395C99.8739 20.2873 99.9188 19.6597 99.9188 18.8529C99.9188 12.0846 95.2123 8.27466 88.3096 8.27466C81.0482 8.27466 76.297 12.9363 76.297 19.8839C76.297 27.3245 81.093 31.4482 88.3992 31.4482ZM88.2199 12.0846C92.9712 12.0846 95.3468 14.0568 95.3468 18.1806V18.2702H80.8689C81.1379 14.281 83.2894 12.0846 88.2199 12.0846ZM108.744 31V24.0524H102.648V31H108.744ZM122.159 31.4482C127.179 31.4482 130.451 29.0278 131.393 24.5903H131.706V31H136.144V0.968483H131.303V14.774H131.034C130.138 11.0089 127.134 8.27466 121.845 8.27466C115.077 8.27466 111.222 12.9363 111.222 19.8839C111.222 26.7418 115.122 31.4482 122.159 31.4482ZM116.108 19.8839C116.108 14.5051 118.887 12.6673 123.549 12.6673C128.524 12.6673 131.303 14.9981 131.303 19.7494V20.108C131.303 24.7696 128.39 27.0107 123.638 27.0107C118.842 27.0107 116.108 25.2178 116.108 19.8839Z" fill="black"/>
</svg>
